<?xml version="1.0" encoding="UTF-8" standalone="no"?>
<!DOCTYPE svg PUBLIC "-//W3C//DTD SVG 1.1//EN" "http://www.w3.org/Graphics/SVG/1.1/DTD/svg11.dtd">
<!-- Generated by graphviz version 2.40.1 (20161225.0304)
 -->
<!-- Title: packages Pages: 1 -->
<svg width="411pt" height="260pt" viewBox="0.00 0.00 410.51 260.00" xmlns="http://www.w3.org/2000/svg" xmlns:xlink="http://www.w3.org/1999/xlink">
<g id="graph0" class="graph" transform="scale(1 1) rotate(0) translate(4 256)">
<title>packages</title>
<polygon fill="#ffffff" stroke="transparent" points="-4,4 -4,-256 406.5127,-256 406.5127,4 -4,4"/>
<!-- 2 -->
<g id="node1" class="node">
<title>2</title>
<polygon fill="none" stroke="#000000" points="175.2066,-36 74.4744,-36 74.4744,0 175.2066,0 175.2066,-36"/>
<text text-anchor="middle" x="124.8405" y="-13.8" font-family="Times,serif" font-size="14.00" fill="#000000">oasisx.cylinder</text>
</g>
<!-- 4 -->
<g id="node3" class="node">
<title>4</title>
<polygon fill="none" stroke="#000000" points="137.5219,-108 .1591,-108 .1591,-72 137.5219,-72 137.5219,-108"/>
<text text-anchor="middle" x="68.8405" y="-85.8" font-family="Times,serif" font-size="14.00" fill="#000000">oasisx.fractional_step</text>
</g>
<!-- 2&#45;&gt;4 -->
<g id="edge1" class="edge">
<title>2-&gt;4</title>
<path fill="none" stroke="#000000" d="M110.7093,-36.1686C104.2594,-44.4614 96.496,-54.443 89.4153,-63.5467"/>
<polygon fill="#000000" stroke="#000000" points="83.1619,-71.5867 85.7493,-60.9304 86.2317,-67.64 89.3014,-63.6932 89.3014,-63.6932 89.3014,-63.6932 86.2317,-67.64 92.8535,-66.4559 83.1619,-71.5867 83.1619,-71.5867"/>
</g>
<!-- 6 -->
<g id="node5" class="node">
<title>6</title>
<polygon fill="none" stroke="#000000" points="221.7266,-108 155.9544,-108 155.9544,-72 221.7266,-72 221.7266,-108"/>
<text text-anchor="middle" x="188.8405" y="-85.8" font-family="Times,serif" font-size="14.00" fill="#000000">oasisx.io</text>
</g>
<!-- 2&#45;&gt;6 -->
<g id="edge2" class="edge">
<title>2-&gt;6</title>
<path fill="none" stroke="#000000" d="M140.9904,-36.1686C148.5122,-44.6306 157.597,-54.8511 165.8209,-64.1029"/>
<polygon fill="#000000" stroke="#000000" points="172.4732,-71.5867 162.4661,-67.1023 169.1513,-67.8497 165.8295,-64.1126 165.8295,-64.1126 165.8295,-64.1126 169.1513,-67.8497 169.1928,-61.123 172.4732,-71.5867 172.4732,-71.5867"/>
</g>
<!-- 9 -->
<g id="node7" class="node">
<title>9</title>
<polygon fill="none" stroke="#000000" points="402.6853,-108 238.9957,-108 238.9957,-72 402.6853,-72 402.6853,-108"/>
<text text-anchor="middle" x="320.8405" y="-85.8" font-family="Times,serif" font-size="14.00" fill="#000000">oasisx.segregated_domain</text>
</g>
<!-- 2&#45;&gt;9 -->
<g id="edge3" class="edge">
<title>2-&gt;9</title>
<path fill="none" stroke="#000000" d="M174.0466,-36.0757C200.7244,-45.8757 233.8791,-58.055 261.9257,-68.3578"/>
<polygon fill="#000000" stroke="#000000" points="271.6142,-71.9169 260.6758,-72.6926 266.9208,-70.1927 262.2275,-68.4686 262.2275,-68.4686 262.2275,-68.4686 266.9208,-70.1927 263.7792,-64.2446 271.6142,-71.9169 271.6142,-71.9169"/>
</g>
<!-- 3 -->
<g id="node2" class="node">
<title>3</title>
<polygon fill="none" stroke="#000000" points="369.332,-180 272.349,-180 272.349,-144 369.332,-144 369.332,-180"/>
<text text-anchor="middle" x="320.8405" y="-157.8" font-family="Times,serif" font-size="14.00" fill="#000000">oasisx.domain</text>
</g>
<!-- 7 -->
<g id="node6" class="node">
<title>7</title>
<polygon fill="none" stroke="#000000" points="166.3149,-180 55.3661,-180 55.3661,-144 166.3149,-144 166.3149,-180"/>
<text text-anchor="middle" x="110.8405" y="-157.8" font-family="Times,serif" font-size="14.00" fill="#000000">oasisx.ipcs_abcn</text>
</g>
<!-- 4&#45;&gt;7 -->
<g id="edge4" class="edge">
<title>4-&gt;7</title>
<path fill="none" stroke="#000000" d="M79.4389,-108.1686C84.1282,-116.2075 89.7433,-125.8334 94.9203,-134.7082"/>
<polygon fill="#000000" stroke="#000000" points="100.0994,-143.5867 91.1737,-137.2164 97.58,-139.2678 95.0607,-134.9489 95.0607,-134.9489 95.0607,-134.9489 97.58,-139.2678 98.9477,-132.6815 100.0994,-143.5867 100.0994,-143.5867"/>
</g>
<!-- 10 -->
<g id="node8" class="node">
<title>10</title>
<polygon fill="none" stroke="#000000" points="117.339,-252 20.342,-252 20.342,-216 117.339,-216 117.339,-252"/>
<text text-anchor="middle" x="68.8405" y="-229.8" font-family="Times,serif" font-size="14.00" fill="#000000">oasisx.utilities</text>
</g>
<!-- 4&#45;&gt;10 -->
<g id="edge5" class="edge">
<title>4-&gt;10</title>
<path fill="none" stroke="#000000" d="M59.2497,-108.4398C54.4906,-118.627 49.2536,-131.6814 46.8405,-144 43.7648,-159.7016 43.7648,-164.2984 46.8405,-180 48.5749,-188.854 51.7681,-198.0881 55.1943,-206.3645"/>
<polygon fill="#000000" stroke="#000000" points="59.2497,-215.5602 51.0971,-208.2264 57.2321,-210.9854 55.2145,-206.4105 55.2145,-206.4105 55.2145,-206.4105 57.2321,-210.9854 59.3318,-204.5946 59.2497,-215.5602 59.2497,-215.5602"/>
</g>
<!-- 5 -->
<g id="node4" class="node">
<title>5</title>
<polygon fill="none" stroke="#000000" points="334.4016,-36 193.2794,-36 193.2794,0 334.4016,0 334.4016,-36"/>
<text text-anchor="middle" x="263.8405" y="-13.8" font-family="Times,serif" font-size="14.00" fill="#000000">oasisx.freezing_cavity</text>
</g>
<!-- 5&#45;&gt;4 -->
<g id="edge6" class="edge">
<title>5-&gt;4</title>
<path fill="none" stroke="#000000" d="M214.8855,-36.0757C188.3437,-45.8757 155.3582,-58.055 127.4547,-68.3578"/>
<polygon fill="#000000" stroke="#000000" points="117.8157,-71.9169 125.6379,-64.2316 122.5062,-70.185 127.1966,-68.4531 127.1966,-68.4531 127.1966,-68.4531 122.5062,-70.185 128.7554,-72.6745 117.8157,-71.9169 117.8157,-71.9169"/>
</g>
<!-- 5&#45;&gt;6 -->
<g id="edge7" class="edge">
<title>5-&gt;6</title>
<path fill="none" stroke="#000000" d="M244.9148,-36.1686C235.8548,-44.8663 224.8596,-55.4217 215.014,-64.8735"/>
<polygon fill="#000000" stroke="#000000" points="207.7601,-71.8372 211.8576,-61.6656 211.3671,-68.3745 214.974,-64.9118 214.974,-64.9118 214.974,-64.9118 211.3671,-68.3745 218.0904,-68.1581 207.7601,-71.8372 207.7601,-71.8372"/>
</g>
<!-- 5&#45;&gt;9 -->
<g id="edge8" class="edge">
<title>5-&gt;9</title>
<path fill="none" stroke="#000000" d="M278.224,-36.1686C284.7891,-44.4614 292.6912,-54.443 299.8983,-63.5467"/>
<polygon fill="#000000" stroke="#000000" points="306.2633,-71.5867 296.528,-66.5394 303.1598,-67.6665 300.0563,-63.7463 300.0563,-63.7463 300.0563,-63.7463 303.1598,-67.6665 303.5845,-60.9531 306.2633,-71.5867 306.2633,-71.5867"/>
</g>
<!-- 7&#45;&gt;10 -->
<g id="edge9" class="edge">
<title>7-&gt;10</title>
<path fill="none" stroke="#000000" d="M100.2421,-180.1686C95.5528,-188.2075 89.9377,-197.8334 84.7607,-206.7082"/>
<polygon fill="#000000" stroke="#000000" points="79.5816,-215.5867 80.7333,-204.6815 82.101,-211.2678 84.6203,-206.9489 84.6203,-206.9489 84.6203,-206.9489 82.101,-211.2678 88.5073,-209.2164 79.5816,-215.5867 79.5816,-215.5867"/>
</g>
<!-- 9&#45;&gt;3 -->
<g id="edge10" class="edge">
<title>9-&gt;3</title>
<path fill="none" stroke="#000000" d="M320.8405,-108.1686C320.8405,-115.869 320.8405,-125.0257 320.8405,-133.5834"/>
<polygon fill="#000000" stroke="#000000" points="320.8405,-143.5867 316.3406,-133.5867 320.8405,-138.5867 320.8406,-133.5867 320.8406,-133.5867 320.8406,-133.5867 320.8405,-138.5867 325.3406,-133.5868 320.8405,-143.5867 320.8405,-143.5867"/>
</g>
</g>
</svg>